<?xml version="1.0" encoding="utf-8"?>
<!-- Generator: Adobe Illustrator 21.1.0, SVG Export Plug-In . SVG Version: 6.00 Build 0)  -->
<svg version="1.1" id="Layer_1" xmlns="http://www.w3.org/2000/svg" xmlns:xlink="http://www.w3.org/1999/xlink" x="0px" y="0px"
	 viewBox="0 0 60 60" style="enable-background:new 0 0 60 60;" xml:space="preserve">
<style type="text/css">
	.st0{fill:url(#SVGID_1_);}
	.st1{fill:url(#SVGID_2_);}
	.st2{fill:url(#SVGID_3_);}
	.st3{fill:url(#SVGID_4_);}
</style>
<g>
	
		<linearGradient id="SVGID_1_" gradientUnits="userSpaceOnUse" x1="30" y1="0.375" x2="30" y2="60.0047" gradientTransform="matrix(1 0 0 -1 0 60)">
		<stop  offset="0" style="stop-color:#F4F0E7"/>
		<stop  offset="0.9944" style="stop-color:#C8E693"/>
	</linearGradient>
	<circle class="st0" cx="30" cy="30" r="30"/>
	<g>
		
			<linearGradient id="SVGID_2_" gradientUnits="userSpaceOnUse" x1="30" y1="-9.094947e-13" x2="30" y2="60" gradientTransform="matrix(1 0 0 -1 0 60)">
			<stop  offset="0" style="stop-color:#DDECC2"/>
			<stop  offset="0.9944" style="stop-color:#8FB252"/>
		</linearGradient>
		<path class="st1" d="M30,1c16,0,29,13,29,29S46,59,30,59S1,46,1,30S14,1,30,1 M30,0C13.4,0,0,13.4,0,30s13.4,30,30,30
			s30-13.4,30-30S46.6,0,30,0L30,0z"/>
	</g>
</g>
<g>
	
		<linearGradient id="SVGID_3_" gradientUnits="userSpaceOnUse" x1="30" y1="11.2375" x2="30" y2="49.003" gradientTransform="matrix(1 0 0 -1 0 60)">
		<stop  offset="0" style="stop-color:#86BE50"/>
		<stop  offset="0.9944" style="stop-color:#CBEFA9"/>
	</linearGradient>
	<circle class="st2" cx="30" cy="30" r="19"/>
	
		<linearGradient id="SVGID_4_" gradientUnits="userSpaceOnUse" x1="30" y1="11" x2="30" y2="49" gradientTransform="matrix(1 0 0 -1 0 60)">
		<stop  offset="0" style="stop-color:#678947"/>
		<stop  offset="0.9944" style="stop-color:#96C46A"/>
	</linearGradient>
	<path class="st3" d="M30,12c9.9,0,18,8.1,18,18s-8.1,18-18,18s-18-8.1-18-18S20.1,12,30,12 M30,11c-10.5,0-19,8.5-19,19
		s8.5,19,19,19s19-8.5,19-19S40.5,11,30,11L30,11z"/>
</g>
</svg>
