<?xml version="1.0" encoding="utf-8"?>
<!-- Generator: Adobe Illustrator 21.1.0, SVG Export Plug-In . SVG Version: 6.00 Build 0)  -->
<svg version="1.1" id="Layer_1" xmlns="http://www.w3.org/2000/svg" xmlns:xlink="http://www.w3.org/1999/xlink" x="0px" y="0px"
	 viewBox="0 0 60 60" style="enable-background:new 0 0 60 60;" xml:space="preserve">
<style type="text/css">
	.st0{fill:#D0C2A4;stroke:url(#SVGID_1_);stroke-width:2;stroke-miterlimit:10;}
	.st1{fill:#F4F0E7;}
</style>
<linearGradient id="SVGID_1_" gradientUnits="userSpaceOnUse" x1="30" y1="59" x2="30" y2="1">
	<stop  offset="0" style="stop-color:#AFA285"/>
	<stop  offset="1" style="stop-color:#EFE4CC"/>
</linearGradient>
<circle class="st0" cx="30" cy="30" r="28"/>
<path class="st1" d="M41.2,43.7L30.5,33.1L19.3,44.2c-1.1,1.1-2.9,1.1-4.1,0c-1.1-1.1-1.1-2.9,0-4.1L26.4,29L15.8,18.3
	c-1.1-1.1-1.1-2.9,0-4.1s2.9-1.1,4.1,0l10.7,10.7l10.2-10.2c1.1-1.1,2.9-1.1,4.1,0c1.1,1.1,1.1,2.9,0,4.1L34.6,29l10.7,10.7
	c1.1,1.1,1.1,2.9,0,4.1C44.1,44.9,42.3,44.9,41.2,43.7z"/>
</svg>
